<svg width="109" height="24" viewBox="0 0 109 24" fill="none" xmlns="http://www.w3.org/2000/svg">
<path d="M40.578 18.108C39.618 18.108 38.73 17.952 37.914 17.64C37.11 17.316 36.408 16.866 35.808 16.29C35.22 15.714 34.758 15.036 34.422 14.256C34.098 13.476 33.936 12.624 33.936 11.7C33.936 10.776 34.098 9.924 34.422 9.144C34.758 8.364 35.226 7.686 35.826 7.11C36.426 6.534 37.128 6.09 37.932 5.778C38.748 5.454 39.636 5.292 40.596 5.292C41.556 5.292 42.432 5.442 43.224 5.742C44.028 6.042 44.712 6.498 45.276 7.11L44.448 7.956C43.92 7.428 43.338 7.05 42.702 6.822C42.066 6.594 41.382 6.48 40.65 6.48C39.87 6.48 39.15 6.612 38.49 6.876C37.842 7.128 37.272 7.494 36.78 7.974C36.3 8.442 35.922 8.994 35.646 9.63C35.382 10.254 35.25 10.944 35.25 11.7C35.25 12.444 35.382 13.134 35.646 13.77C35.922 14.406 36.3 14.964 36.78 15.444C37.272 15.912 37.842 16.278 38.49 16.542C39.15 16.794 39.864 16.92 40.632 16.92C41.352 16.92 42.03 16.812 42.666 16.596C43.314 16.38 43.908 16.014 44.448 15.498L45.204 16.506C44.604 17.034 43.902 17.436 43.098 17.712C42.294 17.976 41.454 18.108 40.578 18.108ZM43.926 16.344V11.7H45.204V16.506L43.926 16.344ZM52.5559 18.09C51.6439 18.09 50.8219 17.886 50.0899 17.478C49.3699 17.058 48.7999 16.488 48.3799 15.768C47.9599 15.036 47.7499 14.202 47.7499 13.266C47.7499 12.318 47.9599 11.484 48.3799 10.764C48.7999 10.044 49.3699 9.48 50.0899 9.072C50.8099 8.664 51.6319 8.46 52.5559 8.46C53.4919 8.46 54.3199 8.664 55.0399 9.072C55.7719 9.48 56.3419 10.044 56.7499 10.764C57.1699 11.484 57.3799 12.318 57.3799 13.266C57.3799 14.202 57.1699 15.036 56.7499 15.768C56.3419 16.488 55.7719 17.058 55.0399 17.478C54.3079 17.886 53.4799 18.09 52.5559 18.09ZM52.5559 16.956C53.2399 16.956 53.8459 16.806 54.3739 16.506C54.9019 16.194 55.3159 15.762 55.6159 15.21C55.9279 14.646 56.0839 13.998 56.0839 13.266C56.0839 12.522 55.9279 11.874 55.6159 11.322C55.3159 10.77 54.9019 10.344 54.3739 10.044C53.8459 9.732 53.2459 9.576 52.5739 9.576C51.9019 9.576 51.3019 9.732 50.7739 10.044C50.2459 10.344 49.8259 10.77 49.5139 11.322C49.2019 11.874 49.0459 12.522 49.0459 13.266C49.0459 13.998 49.2019 14.646 49.5139 15.21C49.8259 15.762 50.2459 16.194 50.7739 16.506C51.3019 16.806 51.8959 16.956 52.5559 16.956ZM65.8583 18V15.912L65.8043 15.57V12.078C65.8043 11.274 65.5763 10.656 65.1203 10.224C64.6763 9.792 64.0103 9.576 63.1223 9.576C62.5103 9.576 61.9283 9.678 61.3763 9.882C60.8243 10.086 60.3563 10.356 59.9723 10.692L59.3963 9.738C59.8763 9.33 60.4523 9.018 61.1243 8.802C61.7963 8.574 62.5043 8.46 63.2483 8.46C64.4723 8.46 65.4143 8.766 66.0743 9.378C66.7463 9.978 67.0823 10.896 67.0823 12.132V18H65.8583ZM62.6003 18.09C61.8923 18.09 61.2743 17.976 60.7463 17.748C60.2303 17.508 59.8343 17.184 59.5583 16.776C59.2823 16.356 59.1443 15.876 59.1443 15.336C59.1443 14.844 59.2583 14.4 59.4863 14.004C59.7263 13.596 60.1103 13.272 60.6383 13.032C61.1783 12.78 61.8983 12.654 62.7983 12.654H66.0563V13.608H62.8343C61.9223 13.608 61.2863 13.77 60.9263 14.094C60.5783 14.418 60.4043 14.82 60.4043 15.3C60.4043 15.84 60.6143 16.272 61.0343 16.596C61.4543 16.92 62.0423 17.082 62.7983 17.082C63.5183 17.082 64.1363 16.92 64.6523 16.596C65.1803 16.26 65.5643 15.78 65.8043 15.156L66.0923 16.038C65.8523 16.662 65.4323 17.16 64.8323 17.532C64.2443 17.904 63.5003 18.09 62.6003 18.09ZM70.5535 18V4.644H71.8315V18H70.5535ZM75.3875 18V8.55H76.6655V18H75.3875ZM76.0355 6.462C75.7715 6.462 75.5495 6.372 75.3695 6.192C75.1895 6.012 75.0995 5.796 75.0995 5.544C75.0995 5.292 75.1895 5.082 75.3695 4.914C75.5495 4.734 75.7715 4.644 76.0355 4.644C76.2995 4.644 76.5215 4.728 76.7015 4.896C76.8815 5.064 76.9715 5.274 76.9715 5.526C76.9715 5.79 76.8815 6.012 76.7015 6.192C76.5335 6.372 76.3115 6.462 76.0355 6.462ZM86.1435 18V15.912L86.0895 15.57V12.078C86.0895 11.274 85.8615 10.656 85.4055 10.224C84.9615 9.792 84.2955 9.576 83.4075 9.576C82.7955 9.576 82.2135 9.678 81.6615 9.882C81.1095 10.086 80.6415 10.356 80.2575 10.692L79.6815 9.738C80.1615 9.33 80.7375 9.018 81.4095 8.802C82.0815 8.574 82.7895 8.46 83.5335 8.46C84.7575 8.46 85.6995 8.766 86.3595 9.378C87.0315 9.978 87.3675 10.896 87.3675 12.132V18H86.1435ZM82.8855 18.09C82.1775 18.09 81.5595 17.976 81.0315 17.748C80.5155 17.508 80.1195 17.184 79.8435 16.776C79.5675 16.356 79.4295 15.876 79.4295 15.336C79.4295 14.844 79.5435 14.4 79.7715 14.004C80.0115 13.596 80.3955 13.272 80.9235 13.032C81.4635 12.78 82.1835 12.654 83.0835 12.654H86.3415V13.608H83.1195C82.2075 13.608 81.5715 13.77 81.2115 14.094C80.8635 14.418 80.6895 14.82 80.6895 15.3C80.6895 15.84 80.8995 16.272 81.3195 16.596C81.7395 16.92 82.3275 17.082 83.0835 17.082C83.8035 17.082 84.4215 16.92 84.9375 16.596C85.4655 16.26 85.8495 15.78 86.0895 15.156L86.3775 16.038C86.1375 16.662 85.7175 17.16 85.1175 17.532C84.5295 17.904 83.7855 18.09 82.8855 18.09ZM93.8266 18.09C92.9386 18.09 92.2546 17.85 91.7746 17.37C91.2946 16.89 91.0546 16.212 91.0546 15.336V6.462H92.3326V15.264C92.3326 15.816 92.4706 16.242 92.7466 16.542C93.0346 16.842 93.4426 16.992 93.9706 16.992C94.5346 16.992 95.0026 16.83 95.3746 16.506L95.8246 17.424C95.5726 17.652 95.2666 17.82 94.9066 17.928C94.5586 18.036 94.1986 18.09 93.8266 18.09ZM89.3626 9.612V8.55H95.2126V9.612H89.3626ZM102.975 8.46C103.743 8.46 104.415 8.61 104.991 8.91C105.579 9.198 106.035 9.642 106.359 10.242C106.695 10.842 106.863 11.598 106.863 12.51V18H105.585V12.636C105.585 11.64 105.333 10.89 104.829 10.386C104.337 9.87 103.641 9.612 102.741 9.612C102.069 9.612 101.481 9.75 100.977 10.026C100.485 10.29 100.101 10.68 99.8251 11.196C99.5611 11.7 99.4291 12.312 99.4291 13.032V18H98.1511V4.644H99.4291V11.142L99.1771 10.656C99.4771 9.972 99.9571 9.438 100.617 9.054C101.277 8.658 102.063 8.46 102.975 8.46Z" fill="#FAFAFA"/>
<path d="M6 2H22V18C22 20.2091 20.2091 22 18 22H2V6C2 3.79086 3.79086 2 6 2Z" stroke="#262626" stroke-width="4"/>
</svg>
